# xmcd
#
# Track frame offsets: 
#        150
#        35390
#        65397
#        118160
#        142022
#        176427
#
# Disc length: 2802 seconds
#
# Revision: 7
# Processed by: cddbd v1.5.2PL0 Copyright (c) Steve Scherf et al.
# Submitted via: ExactAudioCopyFreeDBPlugin 1.0
#
DISCID=510af006
DTITLE=Eric Clapton - E.C. Was Here
DYEAR=1975
DGENRE=Blues
TTITLE0=Have You Ever Loved A Woman
TTITLE1=Presence Of The Lord
TTITLE2=Driftin' Blues
TTITLE3=Can't Find My Way Home
TTITLE4=Ramblin' On My Mind
TTITLE5=Further On Up The Road
EXTD=YEAR: 1975 ID3G: 17
EXTT0=
EXTT1=
EXTT2=
EXTT3=
EXTT4=
EXTT5=
PLAYORDER=
